<svg width="500" height="500" xmlns="http://www.w3.org/2000/svg" xmlns:xlink="http://www.w3.org/1999/xlink"><defs><path id="a" d="M0 .384h430.66V10H0z"/><path id="c" d="M.755.713h63.816v15.279H.755z"/><path id="e" d="M.179.903h17.077v8.089H.179z"/><path id="g" d="M.885.903h17.078v8.089H.885z"/></defs><g fill="none" fill-rule="evenodd"><g transform="translate(35 338.565)"><mask id="b" fill="#fff"><use xlink:href="#a"/></mask><path d="M425.853 10H4.807a4.808 4.808 0 1 1 0-9.616h421.046a4.808 4.808 0 0 1 0 9.616" fill="#199D86" mask="url(#b)"/></g><path d="M310.038 338.971V153.12" stroke="#E6E6E6" stroke-width="2.239" stroke-linecap="round" stroke-linejoin="round"/><path d="M161.133 203.5h-17.65c-26.115 0-47.287 21.173-47.287 47.288v91.542h44.224v-20.266c0-7.398 5.787-13.744 13.184-13.88 7.535-.137 13.686 5.93 13.686 13.434v20.712h36.387v-54.3s41.984 1.119 49.822-23.511c0 0-29.11 11.196-43.664 2.239" fill="#063985"/><path d="M161.133 203.5h-17.65c-26.115 0-47.287 21.173-47.287 47.288v91.542h44.224v-20.266c0-7.398 5.787-13.744 13.184-13.88 7.535-.137 13.686 5.93 13.686 13.434v20.712h36.387v-54.3s41.984 1.119 49.822-23.511c0 0-29.11 11.196-43.664 2.239" stroke="#E6E6E6" stroke-width="2.239" stroke-linecap="round" stroke-linejoin="round"/><path d="M226.57 285.279c4.262 10.165 14.306 17.306 26.02 17.306h6.601c12.933 0 23.416-10.485 23.416-23.416v-19.13a5.598 5.598 0 0 0-11.195 0v16.079c0 7.243-5.666 13.456-12.908 13.589-7.378.135-13.403-5.805-13.403-13.153" stroke="#E6E6E6" stroke-width="2.239" stroke-linecap="round" stroke-linejoin="round"/><path d="M224.39 262.279v6.718" fill="#063985"/><path d="M224.39 262.279v6.718m-18.641-11.642c-17.686 8.873-39.215 1.73-48.089-15.955-8.873-17.686-1.73-39.216 15.955-48.089 10.462-5.249 22.269-4.894 32.005-.066a35.66 35.66 0 0 1 16.084 16.021l.505 1.005c13.719 8.277 22.893 23.326 22.893 40.518v15.41" stroke="#E6E6E6" stroke-width="2.239" stroke-linecap="round" stroke-linejoin="round"/><path d="M209.275 235.97a6.717 6.717 0 1 1 13.435-.002 6.717 6.717 0 0 1-13.435.001" fill="#3A99D8"/><path d="M434.976 309.862h-46.671a4.094 4.094 0 0 0-4.095 4.094v27.638a4.094 4.094 0 0 0 4.095 4.094h46.67a4.094 4.094 0 0 0 4.096-4.094v-27.638a4.094 4.094 0 0 0-4.095-4.094" fill="#FCC02D"/><path d="M421.717 316.58h-20.153v-8.177a4.138 4.138 0 0 1 4.139-4.138h11.874a4.139 4.139 0 0 1 4.14 4.138v8.177z" stroke="#FCC02D" stroke-width="3.359"/><path d="M155.96 171.227c-.28-3.475-3.21-6.217-6.757-6.217-3.547 0-6.476 2.742-6.756 6.217v7.296h-21.62c0 9.701 7.865 17.565 17.567 17.565 9.7 0 17.566-7.864 17.566-17.565v-2.885l4.053-2.626-4.053-1.785z" fill="#063985"/><path d="M155.96 171.227c-.28-3.475-3.21-6.217-6.757-6.217-3.547 0-6.476 2.742-6.756 6.217v7.296h-21.62c0 9.701 7.865 17.565 17.567 17.565 9.7 0 17.566-7.864 17.566-17.565v-2.885l4.053-2.626-4.053-1.785z" stroke="#E6E6E6" stroke-width="2.239" stroke-linecap="round" stroke-linejoin="round"/><path d="M149.879 169.064c1.115 0 2.027.912 2.027 2.027a2.033 2.033 0 0 1-2.027 2.027 2.033 2.033 0 0 1-2.026-2.027c0-1.115.912-2.027 2.026-2.027" fill="#3A99D8"/><path d="M139.925 196.089v7.412" fill="#063985"/><path d="M139.925 196.089v7.412" stroke="#E6E6E6" stroke-width="2.239" stroke-linecap="round" stroke-linejoin="round"/><path d="M144.403 194.97v8.53" fill="#063985"/><path d="M144.403 194.97v8.53" stroke="#E6E6E6" stroke-width="2.239" stroke-linecap="round" stroke-linejoin="round"/><path d="M310.038 160.957h73.055a4.197 4.197 0 0 1 4.196 4.197v44.227a4.197 4.197 0 0 1-4.196 4.197h-73.055" stroke="#E6E6E6" stroke-width="2.603"/><path d="M124.57 309.862H77.9a4.094 4.094 0 0 0-4.096 4.094v27.638a4.094 4.094 0 0 0 4.095 4.094h46.671a4.094 4.094 0 0 0 4.095-4.094v-27.638a4.094 4.094 0 0 0-4.095-4.094" fill="#FCC02D"/><path d="M111.871 316.58H91.719v-8.177a4.137 4.137 0 0 1 4.138-4.138h11.875a4.139 4.139 0 0 1 4.139 4.138v8.177z" stroke="#FCC02D" stroke-width="3.359"/><path d="M339.707 175.511h16.827m-5.784-6.311l6.311 6.312-6.311 6.31" stroke="#199D86" stroke-width="2.103" stroke-linecap="round" stroke-linejoin="round"/><g transform="translate(316 188.565)"><mask id="d" fill="#fff"><use xlink:href="#c"/></mask><path d="M-1.941 35.767c0-19.36 15.694-35.054 35.055-35.054 19.359 0 35.053 15.695 35.053 35.054S52.473 70.82 33.114 70.82c-19.361 0-35.055-15.695-35.055-35.054" fill="#199D86" mask="url(#d)"/></g><g transform="translate(331 195.565)"><mask id="f" fill="#fff"><use xlink:href="#e"/></mask><path d="M.179 9.443A8.538 8.538 0 0 1 8.718.903a8.537 8.537 0 0 1 8.538 8.54 8.537 8.537 0 0 1-8.538 8.537 8.537 8.537 0 0 1-8.54-8.537" fill="#003787" mask="url(#f)"/></g><g transform="translate(349 195.565)"><mask id="h" fill="#fff"><use xlink:href="#g"/></mask><path d="M.885 9.443A8.538 8.538 0 0 1 9.424.903a8.538 8.538 0 0 1 8.539 8.54 8.538 8.538 0 0 1-8.54 8.537A8.538 8.538 0 0 1 .886 9.443" fill="#003787" mask="url(#h)"/></g><path d="M294.146 340.035h43.882c1.93-.012 1.175-1.611 1.119-3.542l-1.721-9.104c-.07-2.418-2.547-4.012-4.776-3.074l-39.861 10.362c-3.472 1.462-2.411 5.38 1.357 5.358" fill="#063985"/><path d="M294.146 340.035h43.882c1.93-.012 1.175-1.611 1.119-3.542l-1.721-9.104c-.07-2.418-2.547-4.012-4.776-3.074l-39.861 10.362c-3.472 1.462-2.411 5.38 1.357 5.358z" stroke="#E6E6E6" stroke-width="2.239" stroke-linecap="round" stroke-linejoin="round"/><path d="M379.452 340.09h-42.544c-11.746 0-19.736-11.918-15.273-22.783l42.142-63.424 6.718 17.913 22.471 54.827c2.632 6.425-2.092 13.468-9.035 13.468h-4.479z" fill="#063985"/><path d="M379.452 340.09h-42.544c-11.746 0-19.736-11.918-15.273-22.783l42.142-63.424 6.718 17.913 22.471 54.827c2.632 6.425-2.092 13.468-9.035 13.468h-4.479z" stroke="#E6E6E6" stroke-width="2.239" stroke-linecap="round" stroke-linejoin="round"/><path fill="#063985" d="M366.665 242.766l-1.768-14.635-9.151 20.787z"/><path stroke="#E6E6E6" stroke-width="2.239" stroke-linecap="round" stroke-linejoin="round" d="M366.665 242.766l-1.768-14.635-9.151 20.787z"/><path d="M383.272 253.882c-1.928-6.473-7.917-11.196-15.017-11.196-8.656 0-15.673 7.017-15.673 15.675 0 7.928 5.892 14.464 13.534 15.51l1.02.163h15.514c11.131 0 20.152-9.022 20.152-20.152h-19.53z" fill="#063985"/><path d="M383.272 253.882c-1.928-6.473-7.917-11.196-15.017-11.196-8.656 0-15.673 7.017-15.673 15.675 0 7.928 5.892 14.464 13.534 15.51l1.02.163h15.514c11.131 0 20.152-9.022 20.152-20.152h-19.53z" stroke="#E6E6E6" stroke-width="2.239" stroke-linecap="round" stroke-linejoin="round"/><path d="M369.376 253.882a3.359 3.359 0 1 1 6.719.001 3.359 3.359 0 0 1-6.72 0" fill="#3A99D8"/><path d="M380.571 267.317h6.718v12.315a3.36 3.36 0 1 1-6.718 0v-12.315z" fill="#FCC02D"/><path d="M338.027 310.981s22.392-1.679 25.75 16.234h11.445c5.297 0 10.837 2.745 12.033 8.536.023.113.034.23.034.345v2.875" fill="#063985"/><path d="M338.027 310.981s22.392-1.679 25.75 16.234h11.445c5.297 0 10.837 2.745 12.033 8.536.023.113.034.23.034.345v2.875" stroke="#E6E6E6" stroke-width="2.239" stroke-linecap="round" stroke-linejoin="round"/><path d="M379.353 327.484l-7.055-19.43c-.848-2.675-4.768-2.206-4.962.594l-.2 18.008" stroke="#E6E6E6" stroke-width="2.239" stroke-linecap="round" stroke-linejoin="round"/></g></svg>