<svg width="29" height="29" viewBox="0 0 29 29" fill="none" xmlns="http://www.w3.org/2000/svg">
<path fill-rule="evenodd" clip-rule="evenodd" d="M27.5619 0.0661201C27.473 0.100869 24.4978 3.03264 20.9503 6.58123L14.5003 13.0331L8.04993 6.58284C1.03713 -0.429876 1.48518 -0.0244081 0.875343 0.0900624C0.55707 0.149789 0.170254 0.536879 0.11057 0.855377C-0.00381906 1.46565 -0.408999 1.01734 6.5985 8.03479L13.0439 14.4893L6.56636 20.9766C-0.463833 28.0173 -0.068159 27.5804 0.0440964 28.1793C0.101453 28.4849 0.514586 28.8984 0.820056 28.9558C1.41903 29.0682 0.981067 29.4653 8.01734 22.4291L14.4996 15.9468L20.9823 22.4289C28.0295 29.4755 27.5799 29.0684 28.1892 28.954C28.5075 28.8942 28.8943 28.5071 28.954 28.1886C29.0685 27.5783 29.4765 28.0296 22.4338 20.9769L15.956 14.49L22.4336 8.00269C29.4568 0.968941 29.0679 1.39803 28.9569 0.805551C28.8463 0.216245 28.1385 -0.159003 27.5619 0.0661201Z" fill="#003787"/>
</svg>
