<svg width="500" height="500" version="1.1" id="Layer_1" xmlns="http://www.w3.org/2000/svg" x="0" y="0" viewBox="0 0 375 243" xml:space="preserve"><style>.st1{fill:#063985;stroke:#617a8e;stroke-width:2.0804;stroke-miterlimit:10}.st2{fill:#617a8e}.st4,.st5{fill:#063985;stroke:#e6e6e6;stroke-width:2;stroke-miterlimit:10}.st5{stroke-width:1.2353}</style><path opacity=".45" fill="none" stroke="#e6e6e6" stroke-width=".902" stroke-miterlimit="10" stroke-dasharray="3.6088,5.4131" d="M17.5 131.5l169 94 146-21"/><circle class="st1" cx="17.78" cy="131.04" r="16.03"/><circle class="st2" cx="17.78" cy="131.04" r="6.18"/><circle class="st1" cx="186.57" cy="225.01" r="16.03"/><circle class="st2" cx="186.41" cy="224.7" r="6.18"/><path fill="none" stroke="#199d86" stroke-width="10" stroke-linecap="round" stroke-linejoin="round" stroke-miterlimit="10" d="M42.5 174.5h327"/><circle class="st4" cx="207.12" cy="53.59" r="14.82"/><path class="st4" d="M251.79 42.47c0-3.62-3.01-6.53-6.67-6.38-3.41.15-6.08 3.11-6.1 6.53-.08 17.53-14.37 31.76-31.91 31.76s-31.83-14.23-31.91-31.76c-.02-3.42-2.68-6.38-6.1-6.53a6.39 6.39 0 0 0-6.67 6.38c0 18.51 11.31 34.42 27.38 41.19v82.67c0 3.72 2.87 6.96 6.59 7.08 3.85.12 7-2.97 7-6.79V130.8a4.321 4.321 0 0 1 8.64 0v35.54c0 3.72 2.87 6.96 6.59 7.08 3.85.12 7-2.97 7-6.79V83.11c15.43-7.06 26.16-22.61 26.16-40.64z"/><circle class="st4" cx="129.91" cy="54.21" r="14.82"/><path class="st4" d="M174.59 43.09c0-3.62-3.01-6.53-6.67-6.38-3.41.15-6.08 3.11-6.1 6.53C161.74 60.77 147.46 75 129.91 75S98.08 60.77 98 43.24c-.02-3.42-2.68-6.38-6.1-6.53a6.39 6.39 0 0 0-6.67 6.38c0 18.51 11.31 34.42 27.38 41.19v82.67c0 3.72 2.87 6.96 6.59 7.08 3.85.12 7-2.97 7-6.79v-35.82a4.321 4.321 0 0 1 8.64 0v35.54c0 3.72 2.87 6.96 6.59 7.08 3.85.12 7-2.97 7-6.79V83.73c15.42-7.06 26.16-22.62 26.16-40.64z"/><circle class="st4" cx="283.32" cy="54.21" r="14.82"/><path class="st4" d="M328 43.09c0-3.62-3.01-6.53-6.67-6.38-3.41.15-6.08 3.11-6.1 6.53C315.15 60.77 300.87 75 283.32 75s-31.83-14.23-31.91-31.76c-.02-3.42-2.68-6.38-6.1-6.53a6.39 6.39 0 0 0-6.67 6.38c0 18.51 11.31 34.42 27.38 41.19v82.67c0 3.72 2.87 6.96 6.59 7.08 3.85.12 7-2.97 7-6.79v-35.82a4.321 4.321 0 0 1 8.64 0v35.54c0 3.72 2.87 6.96 6.59 7.08 3.85.12 7-2.97 7-6.79V83.73C317.26 76.67 328 61.11 328 43.09z"/><path class="st5" d="M322.62 36.91V14.68"/><path fill="#3a99d8" d="M322 .47h21v5.02h-21z"/><path fill="#1a1a1a" d="M322 5.24h21v5.02h-21z"/><path fill="#e6e6e6" d="M322 10.27h21v5.02h-21z"/><path class="st5" d="M246.03 36.91V14.68M90.38 36.91V14.68"/><path transform="rotate(-180 80.5 2.983)" fill="#fcc02d" d="M70 .47h21v5.02H70z"/><path transform="rotate(-180 80.5 7.757)" fill="#199d86" d="M70 5.24h21v5.02H70z"/><path transform="rotate(-180 80.5 12.782)" fill="#bf2e55" d="M70 10.27h21v5.02H70z"/><circle class="st1" cx="328.28" cy="205.46" r="16.03"/><circle class="st2" cx="328.11" cy="205.85" r="6.18"/><path d="M225.68.42h20.97v5.95h-20.97zm0 8.93h20.97v5.95h-20.97z" fill="#9e3039"/><path fill="#fff" d="M225.68 6.37h20.97v2.97h-20.97z"/></svg>