<svg width="500" height="500" xmlns="http://www.w3.org/2000/svg" xmlns:xlink="http://www.w3.org/1999/xlink"><defs><path id="a" d="M.315.514h326.859V9.78H.315z"/><path d="M92.655.685h-31.15a19.565 19.565 0 0 0-16.34 8.805l-6.572 9.98a12.298 12.298 0 0 1-10.272 5.535H17.66C7.91 25.005.005 32.91.005 42.66v10.698a2.918 2.918 0 0 0 2.917 2.917h145.49c5.93 0 10.738-4.808 10.738-10.74v-8.638c0-4.989-2.302-9.697-6.24-12.76L130.232 6.502A27.623 27.623 0 0 0 113.276.685H92.655z" id="c"/><path id="e" d="M.315.136h268.607v84.998H.315z"/><path d="M.315.137v84.997h161.928c1.834-6.858 8.074-11.916 15.51-11.916h45.705c7.436 0 13.674 5.058 15.509 11.916h5.869c13.302 0 24.085-9.78 24.085-21.646 0-16.181-64.344-63.351-115.978-63.351H.315z" id="g"/><path d="M.315.137v84.997h161.928c1.834-6.858 8.074-11.916 15.51-11.916h45.705c7.436 0 13.674 5.058 15.509 11.916h5.869c13.302 0 24.085-9.78 24.085-21.646 0-16.181-64.344-63.351-115.978-63.351H.315z" id="i"/><path d="M.315.137v84.997h161.928c1.834-6.858 8.074-11.916 15.51-11.916h45.705c7.436 0 13.674 5.058 15.509 11.916h5.869c13.302 0 24.085-9.78 24.085-21.646 0-16.181-64.344-63.351-115.978-63.351" id="k"/><path d="M.315.137v84.997h161.928c1.834-6.858 8.074-11.916 15.51-11.916h45.705c7.436 0 13.674 5.058 15.509 11.916h5.869c13.302 0 24.085-9.78 24.085-21.646 0-16.181-64.344-63.351-115.978-63.351" id="m"/><path d="M.315.137v84.997h161.928c1.834-6.858 8.074-11.916 15.51-11.916h45.705c7.436 0 13.674 5.058 15.509 11.916h5.869c13.302 0 24.085-9.78 24.085-21.646 0-16.181-64.344-63.351-115.978-63.351" id="o"/><path id="q" d="M.315.136h268.607v84.998H.315z"/></defs><g fill="none" fill-rule="evenodd"><path d="M268.346 168.152l-2.145-3.56c-.716-1.186-2.583-.103-1.863 1.09l2.145 3.559c.716 1.187 2.582.104 1.863-1.09" fill="#003787"/><g transform="translate(0 277.874)"><mask id="b" fill="#fff"><use xlink:href="#a"/></mask><path d="M322.54 9.78h-458.907a4.633 4.633 0 1 1 0-9.266H322.54a4.633 4.633 0 0 1 0 9.266" fill="#199D86" mask="url(#b)"/></g><path d="M405.724 393.834H167.716a3.433 3.433 0 0 1-3.432-3.433v-2.863a3.433 3.433 0 0 1 3.432-3.433h238.008a3.434 3.434 0 0 1 3.434 3.433v2.863a3.434 3.434 0 0 1-3.434 3.433" fill="#199D86"/><path fill="#3A99D8" d="M281.34 353.718h11.852l.018-3.185h-11.87z"/><g transform="translate(201 320.874)"><mask id="d" fill="#fff"><use xlink:href="#c"/></mask><path fill="#3A99D8" mask="url(#d)" d="M-3.99 69.049h168.433V41.923H-3.99z"/></g><path d="M201.005 363.534v10.698a2.917 2.917 0 0 0 2.917 2.917h145.49c5.93 0 10.738-4.807 10.738-10.74v-8.638c0-4.988-2.303-9.697-6.24-12.76l-22.678-17.634a27.618 27.618 0 0 0-16.956-5.818h-51.771a19.565 19.565 0 0 0-16.34 8.806l-6.572 9.98a12.3 12.3 0 0 1-10.273 5.535h-10.66c-9.75 0-17.655 7.904-17.655 17.654z" stroke="#FFF" stroke-width="2.157"/><path d="M335.724 374.011c0-5.516-4.47-9.987-9.987-9.987-5.516 0-9.987 4.471-9.987 9.987s4.471 9.987 9.987 9.987 9.987-4.47 9.987-9.987m-90.76-.876c0-5.516-4.472-9.987-9.987-9.987-5.516 0-9.988 4.471-9.988 9.987s4.472 9.987 9.988 9.987c5.515 0 9.987-4.47 9.987-9.987" fill="#003787"/><path d="M318.728 373.289a7.162 7.162 0 1 1 14.324 0 7.162 7.162 0 0 1-14.324 0m-8.396 0c0 8.592 6.965 15.557 15.557 15.557s15.558-6.965 15.558-15.557-6.966-15.558-15.558-15.558c-8.592 0-15.557 6.966-15.557 15.558" fill="#063985"/><path d="M318.728 373.289a7.162 7.162 0 1 1 14.324 0 7.162 7.162 0 0 1-14.324 0zm-8.396 0c0 8.592 6.965 15.557 15.557 15.557s15.558-6.965 15.558-15.557-6.966-15.558-15.558-15.558c-8.592 0-15.557 6.966-15.557 15.558z" stroke="#FFF" stroke-width="1.592"/><path d="M227.815 373.289a7.163 7.163 0 1 1 14.325 0 7.163 7.163 0 0 1-14.325 0m-8.396 0c0 8.592 6.966 15.557 15.558 15.557 8.592 0 15.558-6.965 15.558-15.557s-6.966-15.558-15.558-15.558c-8.592 0-15.558 6.966-15.558 15.558" fill="#063985"/><path d="M227.815 373.289a7.163 7.163 0 1 1 14.325 0 7.163 7.163 0 0 1-14.325 0zm-8.396 0c0 8.592 6.966 15.557 15.558 15.557 8.592 0 15.558-6.965 15.558-15.557s-6.966-15.558-15.558-15.558c-8.592 0-15.558 6.966-15.558 15.558z" stroke="#FFF" stroke-width="1.592"/><path d="M297.37 345.252h29.074c2.11 0 3.398-2.484 2.282-4.274l-1.134-1.822a24.892 24.892 0 0 0-21.128-11.73h-9.093v17.826z" fill="#063985"/><path d="M297.37 345.252h29.074c2.11 0 3.398-2.484 2.282-4.274l-1.134-1.822a24.892 24.892 0 0 0-21.128-11.73h-9.093v17.826z" stroke="#FFF" stroke-width="1.592"/><path d="M292.159 345.252v-18.144h-28.083a12.847 12.847 0 0 0-9.784 4.521l-8.892 13.623h46.759z" fill="#063985"/><path d="M292.159 345.252v-18.144h-28.083a12.847 12.847 0 0 0-9.784 4.521l-8.892 13.623h46.759z" stroke="#FFF" stroke-width="1.592"/><path d="M367.426 369.174a3.88 3.88 0 1 1 7.76 0 3.88 3.88 0 0 1-7.76 0m110.572-65.954a8.73 8.73 0 1 1 17.459 0 8.73 8.73 0 0 1-17.46 0m-106.691 52.375c0-7.5 6.08-13.579 13.58-13.579 7.498 0 13.578 6.08 13.578 13.58 0 7.498-6.08 13.578-13.579 13.578-7.5 0-13.579-6.08-13.579-13.579" fill="#000"/><path d="M376.156 341.046c0-15.535 12.594-28.128 28.128-28.128s28.128 12.593 28.128 28.128c0 15.534-12.594 28.128-28.128 28.128s-28.128-12.594-28.128-28.128m61.105-9.699c0-12.856 10.422-23.278 23.278-23.278 12.857 0 23.28 10.422 23.28 23.278 0 12.855-10.423 23.278-23.28 23.278-12.856 0-23.278-10.423-23.278-23.278" fill="#000"/><path d="M391.674 333.287c0-18.75 15.2-33.947 33.947-33.947 18.75 0 33.95 15.198 33.95 33.947 0 18.749-15.2 33.947-33.95 33.947-18.748 0-33.947-15.198-33.947-33.947" fill="#000"/><path d="M177.568 268.83h44.485" fill="#063985"/><path d="M177.568 268.83h44.485" stroke="#E6E6E6" stroke-width="1.589"/><path d="M165.653 265.653c0-6.58 5.335-11.915 11.915-11.915 6.58 0 11.916 5.335 11.916 11.915 0 6.58-5.335 11.916-11.916 11.916-6.58 0-11.915-5.335-11.915-11.916" fill="#063985"/><path d="M165.653 265.653c0-6.58 5.335-11.915 11.915-11.915 6.58 0 11.916 5.335 11.916 11.915 0 6.58-5.335 11.916-11.916 11.916-6.58 0-11.915-5.335-11.915-11.916z" stroke="#E6E6E6" stroke-width="1.589"/><path d="M66.665 232.325H47.603a3.794 3.794 0 0 1-3.795-3.794v-10.594a3.796 3.796 0 0 1 3.795-3.795h19.062c2.096 0 3.794 1.7 3.794 3.795v10.594a3.793 3.793 0 0 1-3.794 3.794" fill="#3A99D8"/><path d="M192.662 264.064h13.504" fill="#063985"/><path d="M192.662 264.064h13.504" stroke="#E6E6E6" stroke-width="1.589"/><path d="M210.137 265.653c0-6.58 5.335-11.915 11.916-11.915s11.916 5.335 11.916 11.915c0 6.58-5.335 11.916-11.916 11.916-6.58 0-11.916-5.335-11.916-11.916" fill="#063985"/><path d="M210.137 265.653c0-6.58 5.335-11.915 11.916-11.915s11.916 5.335 11.916 11.915c0 6.58-5.335 11.916-11.916 11.916-6.58 0-11.916-5.335-11.916-11.916z" stroke="#E6E6E6" stroke-width="1.589"/><g transform="translate(0 186.874)"><mask id="f" fill="#fff"><use xlink:href="#e"/></mask><path d="M152.943.136H-8.315v84.998h170.559c1.834-6.858 8.073-11.916 15.51-11.916h45.704c7.436 0 13.674 5.058 15.509 11.916h5.87c13.3 0 24.085-9.78 24.085-21.646 0-16.18-64.345-63.352-115.98-63.352" fill="#063985" mask="url(#f)"/></g><g transform="translate(0 186.874)"><mask id="h" fill="#fff"><use xlink:href="#g"/></mask><path d="M297.52 50.976h-57.99c-20.182 0-36.542-10.67-36.542-23.83h94.531v23.83z" fill="#3A99D8" mask="url(#h)"/></g><g transform="translate(0 186.874)"><mask id="j" fill="#fff"><use xlink:href="#i"/></mask><path d="M17.156 50.976h161.78a4.986 4.986 0 0 0 4.988-4.986V32.131a4.986 4.986 0 0 0-4.987-4.986H17.156v23.831z" fill="#3A99D8" mask="url(#j)"/></g><g transform="translate(0 186.874)"><mask id="l" fill="#fff"><use xlink:href="#k"/></mask><path d="M307.051 23.173h-10.384a7.093 7.093 0 0 0-7.093 7.092v1.703a7.093 7.093 0 0 0 7.093 7.092h10.384a7.943 7.943 0 1 0 0-15.887" fill="#3A99D8" mask="url(#l)"/></g><g transform="translate(0 186.874)"><mask id="n" fill="#fff"><use xlink:href="#m"/></mask><path d="M302.677 10.09H-22.22" stroke="#E6E6E6" stroke-width="1.589" mask="url(#n)"/></g><g transform="translate(0 186.874)"><mask id="p" fill="#fff"><use xlink:href="#o"/></mask><path d="M310.229 66.864H-14.67" stroke="#E6E6E6" stroke-width="1.589" mask="url(#p)"/></g><g transform="translate(0 186.874)"><mask id="r" fill="#fff"><use xlink:href="#q"/></mask><path d="M152.943.136H-8.315v84.998h170.559c1.834-6.858 8.073-11.916 15.51-11.916h45.704c7.436 0 13.674 5.058 15.509 11.916h5.87c13.3 0 24.085-9.78 24.085-21.646 0-16.18-64.345-63.352-115.98-63.352z" stroke="#E6E6E6" stroke-width="2.157" stroke-linecap="round" stroke-linejoin="round" mask="url(#r)"/></g><path d="M194.488 169.457a2.158 2.158 0 1 1 4.316.002 2.158 2.158 0 0 1-4.316-.002" fill="#E6E6E6"/><path d="M195.028 162.984c0 1.508.62 2.867 1.618 3.846a5.38 5.38 0 0 0 0-7.692 5.375 5.375 0 0 0-1.618 3.846m0 12.946a5.37 5.37 0 0 0 1.618 3.845 5.38 5.38 0 0 0 0-7.692 5.373 5.373 0 0 0-1.618 3.846m8.09-8.091a5.38 5.38 0 0 0-3.846 1.618 5.375 5.375 0 0 0 3.846 1.618 5.372 5.372 0 0 0 3.846-1.618 5.376 5.376 0 0 0-3.846-1.618m-12.945 0a5.376 5.376 0 0 0-3.846 1.618 5.372 5.372 0 0 0 3.846 1.618 5.375 5.375 0 0 0 3.846-1.618 5.38 5.38 0 0 0-3.846-1.618m12.194 5.052a5.376 5.376 0 0 0-3.863-1.576 5.368 5.368 0 0 0 1.575 3.863 5.368 5.368 0 0 0 3.863 1.575 5.374 5.374 0 0 0-1.575-3.863m-9.154-9.153a5.376 5.376 0 0 0-3.863-1.575 5.373 5.373 0 0 0 5.438 5.438 5.378 5.378 0 0 0-1.575-3.863m0 11.441a5.376 5.376 0 0 0 1.575-3.863 5.373 5.373 0 0 0-5.438 5.438 5.371 5.371 0 0 0 3.863-1.575m9.154-9.153a5.374 5.374 0 0 0 1.575-3.863 5.368 5.368 0 0 0-3.863 1.575 5.37 5.37 0 0 0-1.575 3.863 5.371 5.371 0 0 0 3.863-1.575" fill="#FCC02D"/><path d="M165.365 145.82a3.673 3.673 0 1 1 7.077 1.965 3.673 3.673 0 0 1-7.077-1.965" fill="#E6E6E6"/><path d="M169.199 135.45a9.149 9.149 0 0 0 .9 7.045 9.152 9.152 0 0 0 3.507-12.615 9.147 9.147 0 0 0-4.407 5.57m-5.899 21.231a9.149 9.149 0 0 0 .9 7.045 9.148 9.148 0 0 0 4.407-5.569 9.144 9.144 0 0 0-.902-7.045 9.147 9.147 0 0 0-4.406 5.57m16.957-9.582a9.15 9.15 0 0 0-7.045.9 9.15 9.15 0 0 0 5.57 4.407 9.145 9.145 0 0 0 7.045-.902 9.146 9.146 0 0 0-5.57-4.406m-21.231-5.899a9.149 9.149 0 0 0-7.045.9 9.151 9.151 0 0 0 12.615 3.506 9.148 9.148 0 0 0-5.57-4.406m17.697 13.84a9.15 9.15 0 0 0-5.619-4.344 9.146 9.146 0 0 0 .823 7.055 9.148 9.148 0 0 0 5.618 4.345 9.15 9.15 0 0 0-.822-7.055m-10.842-19.185a9.15 9.15 0 0 0-5.619-4.345 9.146 9.146 0 0 0 .823 7.055 9.154 9.154 0 0 0 5.62 4.345 9.15 9.15 0 0 0-.824-7.055m-5.214 18.766a9.145 9.145 0 0 0 4.345-5.618 9.151 9.151 0 0 0-11.399 6.441 9.144 9.144 0 0 0 7.054-.823m19.185-10.842a9.151 9.151 0 0 0 4.344-5.618 9.155 9.155 0 0 0-11.399 6.441 9.15 9.15 0 0 0 7.055-.822" fill="#FCC02D"/><path d="M125.317 139.252a3.673 3.673 0 1 1 7.346 0 3.673 3.673 0 0 1-7.346 0" fill="#E6E6E6"/><path d="M126.235 128.234a9.154 9.154 0 0 0 2.755 6.547 9.154 9.154 0 0 0 0-13.094 9.154 9.154 0 0 0-2.755 6.547m0 22.036a9.154 9.154 0 0 0 2.755 6.547 9.154 9.154 0 0 0 0-13.094 9.154 9.154 0 0 0-2.755 6.547m13.773-13.772a9.146 9.146 0 0 0-6.547 2.755 9.15 9.15 0 0 0 6.547 2.754 9.149 9.149 0 0 0 6.546-2.755 9.146 9.146 0 0 0-6.546-2.755m-22.037.001a9.146 9.146 0 0 0-6.546 2.755 9.149 9.149 0 0 0 6.546 2.754 9.15 9.15 0 0 0 6.547-2.755 9.146 9.146 0 0 0-6.547-2.755m20.757 8.598a9.15 9.15 0 0 0-6.576-2.682 9.153 9.153 0 0 0 9.258 9.26 9.15 9.15 0 0 0-2.682-6.578m-15.581-15.582a9.155 9.155 0 0 0-6.577-2.682 9.15 9.15 0 0 0 2.681 6.578 9.15 9.15 0 0 0 6.577 2.681 9.154 9.154 0 0 0-2.681-6.577m0 19.477a9.154 9.154 0 0 0 2.681-6.576 9.15 9.15 0 0 0-6.577 2.68 9.15 9.15 0 0 0-2.681 6.579 9.155 9.155 0 0 0 6.577-2.682m15.581-15.582a9.15 9.15 0 0 0 2.682-6.577 9.154 9.154 0 0 0-9.258 9.259 9.15 9.15 0 0 0 6.576-2.682" fill="#FCC02D"/><path d="M218.426 132.475a5.187 5.187 0 1 1 10.375-.001 5.187 5.187 0 0 1-10.375.001" fill="#E6E6E6"/><path d="M219.723 116.91c0 3.626 1.495 6.895 3.891 9.249a12.924 12.924 0 0 0 3.891-9.248c0-3.624-1.495-6.893-3.89-9.247a12.924 12.924 0 0 0-3.892 9.247m0 31.128c0 3.624 1.495 6.894 3.891 9.247a12.922 12.922 0 0 0 3.891-9.247c0-3.624-1.495-6.894-3.89-9.247a12.922 12.922 0 0 0-3.892 9.247m19.455-19.456a12.921 12.921 0 0 0-9.248 3.892 12.923 12.923 0 0 0 9.248 3.89c3.624 0 6.893-1.494 9.247-3.89a12.92 12.92 0 0 0-9.247-3.892m-31.128 0a12.919 12.919 0 0 0-9.247 3.892 12.921 12.921 0 0 0 9.247 3.89c3.624 0 6.894-1.494 9.247-3.89a12.919 12.919 0 0 0-9.247-3.892m29.32 12.146c-2.562-2.563-5.93-3.817-9.29-3.788a12.925 12.925 0 0 0 3.788 9.29 12.925 12.925 0 0 0 9.29 3.788 12.92 12.92 0 0 0-3.787-9.29m-22.011-22.011a12.92 12.92 0 0 0-9.29-3.787 12.93 12.93 0 0 0 3.788 9.29 12.925 12.925 0 0 0 9.29 3.787 12.923 12.923 0 0 0-3.788-9.29m0 27.512a12.922 12.922 0 0 0 3.788-9.29c-3.36-.028-6.727 1.226-9.29 3.789-2.563 2.563-3.817 5.93-3.788 9.29a12.922 12.922 0 0 0 9.29-3.788m22.01-22.01a12.922 12.922 0 0 0 3.788-9.29 12.928 12.928 0 0 0-9.29 3.787 12.926 12.926 0 0 0-3.787 9.29 12.92 12.92 0 0 0 9.29-3.787" fill="#FCC02D"/><path d="M137.183 181.323a3.674 3.674 0 1 1 7.347.001 3.674 3.674 0 0 1-7.347-.001" fill="#E6E6E6"/><path d="M138.101 170.305a9.15 9.15 0 0 0 2.755 6.546 9.15 9.15 0 0 0 2.755-6.546 9.15 9.15 0 0 0-2.755-6.547 9.15 9.15 0 0 0-2.755 6.547m0 22.036a9.15 9.15 0 0 0 2.755 6.546 9.15 9.15 0 0 0 2.755-6.546 9.15 9.15 0 0 0-2.755-6.547 9.15 9.15 0 0 0-2.755 6.547m13.773-13.773a9.15 9.15 0 0 0-6.546 2.755 9.15 9.15 0 0 0 6.546 2.755 9.15 9.15 0 0 0 6.547-2.755 9.15 9.15 0 0 0-6.547-2.755m-22.037 0a9.15 9.15 0 0 0-6.546 2.755 9.15 9.15 0 0 0 6.546 2.755 9.15 9.15 0 0 0 6.547-2.755 9.15 9.15 0 0 0-6.547-2.755m20.757 8.598a9.147 9.147 0 0 0-6.576-2.682 9.153 9.153 0 0 0 9.258 9.258 9.147 9.147 0 0 0-2.682-6.576m-15.582-15.582a9.147 9.147 0 0 0-6.576-2.682 9.153 9.153 0 0 0 9.258 9.258 9.147 9.147 0 0 0-2.682-6.576m0 19.478a9.15 9.15 0 0 0 2.682-6.577 9.15 9.15 0 0 0-6.578 2.681 9.149 9.149 0 0 0-2.68 6.577 9.15 9.15 0 0 0 6.576-2.681m15.582-15.582a9.15 9.15 0 0 0 2.682-6.577 9.15 9.15 0 0 0-6.578 2.681 9.149 9.149 0 0 0-2.68 6.577 9.15 9.15 0 0 0 6.576-2.681" fill="#FCC02D"/></g></svg>