<svg width="500" height="500" xmlns="http://www.w3.org/2000/svg" xmlns:xlink="http://www.w3.org/1999/xlink"><defs><path id="a" d="M.618.327h248.055v33.426H.618z"/><path id="c" d="M0 256.284h461.49V0H0z"/></defs><g transform="translate(19 122)" fill="none" fill-rule="evenodd"><path d="M18.197 165.045l332.26-144.507 90.712 136.068" stroke="#E6E6E6" stroke-width="1.017" stroke-dasharray="4.07,6.105"/><path d="M3.458 173.746c-4.929-9.309-1.378-20.851 7.931-25.78 9.309-4.93 20.85-1.38 25.78 7.93 4.93 9.308 1.38 20.85-7.93 25.78-9.31 4.929-20.85 1.378-25.78-7.93" fill="#063985"/><path d="M3.458 173.746c-4.929-9.309-1.378-20.851 7.931-25.78 9.309-4.93 20.85-1.38 25.78 7.93 4.93 9.308 1.38 20.85-7.93 25.78-9.31 4.929-20.85 1.378-25.78-7.93z" stroke="#617A8E" stroke-width="2.346"/><path d="M13.621 168.72a7.357 7.357 0 1 1 13.004-6.886 7.357 7.357 0 0 1-13.004 6.886" fill="#617A8E"/><path d="M333.609 29.239c-4.93-9.309-1.379-20.851 7.93-25.78 9.31-4.93 20.851-1.379 25.781 7.93 4.93 9.308 1.379 20.85-7.93 25.78-9.31 4.929-20.851 1.378-25.781-7.93" fill="#063985"/><path d="M333.609 29.239c-4.93-9.309-1.379-20.851 7.93-25.78 9.31-4.93 20.851-1.379 25.781 7.93 4.93 9.308 1.379 20.85-7.93 25.78-9.31 4.929-20.851 1.378-25.781-7.93z" stroke="#617A8E" stroke-width="2.346"/><path d="M343.772 24.213a7.357 7.357 0 1 1 13.004-6.885 7.357 7.357 0 0 1-13.004 6.885" fill="#617A8E"/><path d="M424.321 165.307c-4.929-9.308-1.378-20.85 7.931-25.78 9.309-4.929 20.85-1.378 25.78 7.93 4.93 9.309 1.38 20.851-7.93 25.781-9.31 4.928-20.85 1.378-25.78-7.93" fill="#063985"/><path d="M424.321 165.307c-4.929-9.308-1.378-20.85 7.931-25.78 9.309-4.929 20.85-1.378 25.78 7.93 4.93 9.309 1.38 20.851-7.93 25.781-9.31 4.928-20.85 1.378-25.78-7.93z" stroke="#617A8E" stroke-width="2.346"/><path d="M434.484 160.282a7.357 7.357 0 1 1 13.004-6.886 7.357 7.357 0 0 1-13.004 6.886" fill="#617A8E"/><g transform="translate(102.315 222.531)"><mask id="b" fill="#fff"><use xlink:href="#a"/></mask><path d="M248.673 17.04c0 9.231-55.53 16.714-124.028 16.714C56.148 33.754.618 26.27.618 17.04.618 7.81 56.148.327 124.645.327c68.499 0 124.028 7.483 124.028 16.714" fill="#199D86" mask="url(#b)"/></g><mask id="d" fill="#fff"><use xlink:href="#c"/></mask><path stroke="#FCC02D" mask="url(#d)" d="M71.856 87.36h93.266V22.2H71.856z"/><path stroke="#FCC02D" mask="url(#d)" d="M84.177 77.795h68.625V31.762H84.177z"/><path stroke="#FCC02D" stroke-width=".631" mask="url(#d)" d="M139.572 22.149L118.621 4.875 97.156 22.329m-7.115 25.837c0-4.53 3.67-8.2 8.199-8.2a8.2 8.2 0 1 1-8.199 8.2z"/><path d="M108.132 64.525a114.385 114.385 0 0 1 14.096-20.767c.178-.208.38-.428.648-.473.395-.067.733.262.997.562.948 1.081 1.45 2.31 2.889 1.955 1.418-.35 3.025-1.65 4.268-2.408a72.605 72.605 0 0 0 7.797-5.489c.313-.255.654-.523 1.058-.557.336-.028.661.114.969.256 2.71 1.24 5.35 2.63 7.906 4.162 1.436.86 2.9 1.82 3.75 3.262" stroke="#199D86" stroke-width=".631" mask="url(#d)"/><path d="M85.057 31.616l-12.322-9.562m79.77 9.862l12.209-9.587M84.494 77.77l-12.637 9.589" stroke="#FCC02D" mask="url(#d)"/><path d="M84.45 63.307a23.97 23.97 0 0 1 12.938-1.574c3.292.518 6.435 1.72 9.687 2.448 2.172.486 4.426.76 6.621.391 2.06-.346 3.983-1.243 5.848-2.186 5.281-2.672 10.443-5.823 16.233-7.053 5.566-1.182 11.657-.412 16.404 2.726" stroke="#3A99D8" stroke-width=".631" mask="url(#d)"/><path fill="#063985" mask="url(#d)" d="M164.71 184.278l-8.64 56.46h7.27l15.556-58.764z"/><path stroke="#FFF" stroke-width="2.358" mask="url(#d)" d="M164.71 184.278l-8.64 56.46h7.27l15.556-58.764z"/><path fill="#063985" mask="url(#d)" d="M290.882 184.278l8.64 56.46h-7.271l-15.555-58.764z"/><path stroke="#FFF" stroke-width="2.358" mask="url(#d)" d="M290.882 184.278l8.64 56.46h-7.271l-15.555-58.764z"/><path fill="#003787" mask="url(#d)" d="M141.09 187.16h182.021V67.325h-182.02z"/><path stroke="#FFF" stroke-width="2.364" mask="url(#d)" d="M141.09 187.16h182.021V67.325h-182.02z"/><path d="M274.605 172.763H171.348c-8.002 0-14.492-6.488-14.492-14.492V97.366c0-8.003 6.49-14.492 14.492-14.492h103.257c8.004 0 14.492 6.489 14.492 14.492v60.905c0 8.004-6.488 14.492-14.492 14.492" fill="#063985" mask="url(#d)"/><path d="M274.605 172.763H171.348c-8.002 0-14.492-6.488-14.492-14.492V97.366c0-8.003 6.49-14.492 14.492-14.492h103.257c8.004 0 14.492 6.489 14.492 14.492v60.905c0 8.004-6.488 14.492-14.492 14.492z" stroke="#FFF" stroke-width="2.358" mask="url(#d)"/><path d="M299.305 166.27a7.623 7.623 0 1 1 15.246 0 7.623 7.623 0 1 1-15.246 0m0-21.552a7.624 7.624 0 1 1 15.248 0 7.624 7.624 0 0 1-15.248 0m-1.173-18.032h17.593v-4.105h-17.593zm0-8.209h17.593v-4.106h-17.593zm0-8.21h17.593v-4.105h-17.593zm0-8.209h17.593V97.95h-17.593zm0-8.212h17.593v-4.105h-17.593z" fill="#FCC02D" mask="url(#d)"/><path fill="#3A99D8" mask="url(#d)" d="M206.285 115.764h27.562v-6.45h-27.562zm-6.695 8.311h19.06v-1.799h-19.06zm20.596 0h38.633v-1.799h-38.633zm-10.48 4.665h8.943v-1.799h-8.943zm10.48 0h20.541v-1.799h-20.54zm-20.596 4.665h19.06v-1.8h-19.06zm20.596 0h47.374v-1.8h-47.374zm-15.492 4.665h13.955v-1.799h-13.955zm15.492 0h47.374v-1.799h-47.374zm-28.236 4.666h26.7v-1.8h-26.7zm28.237 0h36.817v-1.8h-36.817zM201.16 147.4h17.49v-1.8h-17.49zm19.026 0h23.134v-1.8h-23.134zm-15.725 4.666h14.188v-1.8h-14.188zm15.725 0h16.482v-1.8h-16.482zm-25.043 4.664h23.506v-1.799h-23.506zm25.044 0h33.483v-1.799h-33.483zm-20.597 5.17h19.06v-1.8h-19.06zm20.596 0h38.633v-1.8h-38.633zm-10.48 4.664h8.943v-1.8h-8.943zm10.48 0h20.541v-1.8h-20.54z"/><path d="M114.368 67.898h14.368m-41.978 2.215c4.22 0 4.661-1.688 6.866-2.216H107.7m-10.338 4.105l7.037-.293h11.44" stroke="#3A99D8" stroke-width=".631" mask="url(#d)"/></g></svg>