<svg width="500" height="500" xmlns="http://www.w3.org/2000/svg"><g fill="none" fill-rule="evenodd"><path d="M286.316 125.42c0-9.524 7.726-17.244 17.254-17.244 9.53 0 17.256 7.72 17.256 17.245 0 9.527-7.726 17.246-17.256 17.246-9.528 0-17.254-7.72-17.254-17.246m57.074 3.98c0-7.326 5.941-13.267 13.272-13.267 7.33 0 13.273 5.94 13.273 13.267 0 7.328-5.943 13.266-13.273 13.266-7.331 0-13.273-5.938-13.273-13.266" fill="#3A99D8"/><path d="M307.552 118.124c0-13.555 10.994-24.542 24.556-24.542 13.56 0 24.555 10.987 24.555 24.542 0 13.555-10.994 24.544-24.555 24.544-13.562 0-24.556-10.989-24.556-24.544" fill="#3A99D8"/><path fill="#3A99D8" d="M303.57 142.667h53.092v-18.573H303.57z"/><path d="M468.03 126.936h0a2.137 2.137 0 0 0-1.652 1.131c-.452.863-1.15 2.374-2.05 4.87-1.68 4.65-7.17 5.294-7.17 5.294l-162.324 24.4c-2.282.342-4.35-1.338-4.512-3.639a47.27 47.27 0 0 0-1.26-7.977l58.994-17.654c.326-.097.587-.343.703-.663v-.002a1.077 1.077 0 0 0-1.235-1.418l-60.797 12.732c-5.453-12.81-16.35-22-28.92-24.24-1.923-.343-3.422-1.861-3.81-3.774l-9.727-47.87a3.005 3.005 0 0 0-5.947.702L240 118.005c.065 1.955-1.07 3.716-2.835 4.559-11.11 5.308-19.11 16.448-21.386 29.7l-61.013 1.702a1.078 1.078 0 0 0-.032 2.152l60.385 3.409a47.129 47.129 0 0 0 .634 8.277c.38 2.275-1.242 4.393-3.543 4.588L47.54 186.447s-5.49.646-8.205-3.486c-1.457-2.22-2.486-3.526-3.125-4.26a2.138 2.138 0 0 0-1.87-.716c-1.278.15-2.156 1.38-1.844 2.63 1.067 4.294 4.975 12.857 19.115 12.03 14.478-.847 123.904-2.968 173.44-3.9 8.02 9.93 20.006 15.631 32.637 14.144 12.678-1.493 23.04-9.874 28.518-21.46 48.93-10.713 154.267-33.705 168.432-36.223 13.945-2.478 15.756-11.715 15.796-16.14.012-1.284-1.127-2.28-2.404-2.13z" stroke="#E6E6E6" stroke-width="2.301"/><path d="M226.553 146.586s9.561 5.552 21.641 4.13l1.423 12.074s-30.168-.9-28.878-8.842c1.292-7.941 5.814-7.362 5.814-7.362m49.302-5.802s-8.008 7.62-20.09 9.043l1.423 12.074s29.135-7.882 26.032-15.307c-3.101-7.424-7.365-5.81-7.365-5.81" fill="#3A99D8"/><path d="M377.916 155.212c-1.214-10.305 6.16-19.644 16.47-20.859 10.311-1.213 19.655 6.157 20.87 16.462 1.213 10.307-6.161 19.646-16.473 20.86-10.31 1.212-19.653-6.159-20.867-16.463z" stroke-width="1.76"/><path d="M371.327 155.987c-1.643-13.943 8.334-26.579 22.284-28.22 13.95-1.641 26.59 8.33 28.234 22.274 1.642 13.944-8.336 26.577-22.285 28.22-13.95 1.642-26.591-8.33-28.233-22.274z" stroke-width="1.76"/><path d="M364.738 156.763c-2.072-17.58 10.508-33.512 28.097-35.582 17.589-2.07 33.527 10.503 35.599 28.084 2.07 17.58-10.509 33.512-28.098 35.582-17.588 2.07-33.527-10.503-35.598-28.084z" stroke-width="1.76"/><path d="M357.599 157.603c-2.536-21.521 12.865-41.022 34.396-43.558 21.531-2.533 41.04 12.859 43.576 34.38 2.536 21.521-12.863 41.022-34.394 43.558-21.531 2.533-41.042-12.859-43.578-34.38z" stroke-width="1.76"/><path d="M255.844 239.831l-2.784.328a1.916 1.916 0 0 1-2.126-1.677l-1.233-10.467a1.916 1.916 0 0 1 1.679-2.126l2.784-.328a1.916 1.916 0 0 1 2.126 1.679l1.232 10.465a1.914 1.914 0 0 1-1.678 2.126m13.179-1.551l-2.783.328a1.916 1.916 0 0 1-2.128-1.678l-1.233-10.466a1.915 1.915 0 0 1 1.68-2.125l2.783-.328a1.916 1.916 0 0 1 2.127 1.677l1.232 10.467a1.914 1.914 0 0 1-1.678 2.125" fill="#3A99D8"/><path d="M260.136 231.536l-2.198-18.66" stroke="#FFF" stroke-width="1.669" stroke-linecap="round" stroke-linejoin="round"/><path d="M267.078 200.67l.81 6.887a4.117 4.117 0 0 1-3.609 4.571l-12.682 1.494a4.119 4.119 0 0 1-4.573-3.609l-.94-7.985" stroke="#FFF" stroke-width="1.669"/><path d="M187.98 213.592l-1.709.202a1.177 1.177 0 0 1-1.305-1.03l-.757-6.426a1.176 1.176 0 0 1 1.031-1.306l1.708-.202a1.178 1.178 0 0 1 1.307 1.03l.757 6.427a1.175 1.175 0 0 1-1.031 1.305m8.092-.952l-1.71.201a1.177 1.177 0 0 1-1.305-1.03l-.757-6.426a1.177 1.177 0 0 1 1.031-1.306l1.71-.202a1.178 1.178 0 0 1 1.305 1.032l.757 6.426a1.177 1.177 0 0 1-1.031 1.306" fill="#3A99D8"/><path d="M190.616 208.5l-1.348-11.459m5.611-7.494l.498 4.229a2.529 2.529 0 0 1-2.217 2.806l-7.786.917a2.529 2.529 0 0 1-2.809-2.215l-.577-4.903" stroke="#E6E6E6" stroke-width="2.301"/><path d="M320.863 197.951l-1.709.2a1.175 1.175 0 0 1-1.306-1.029l-.757-6.425a1.176 1.176 0 0 1 1.03-1.306l1.71-.202a1.177 1.177 0 0 1 1.306 1.03l.757 6.427a1.175 1.175 0 0 1-1.031 1.305m8.093-.951l-1.71.2a1.177 1.177 0 0 1-1.306-1.03l-.757-6.426a1.177 1.177 0 0 1 1.03-1.306l1.71-.202a1.178 1.178 0 0 1 1.306 1.032l.757 6.426a1.176 1.176 0 0 1-1.03 1.306" fill="#3A99D8"/><path d="M323.5 192.859l-1.35-11.459m5.61-7.494l.499 4.229a2.529 2.529 0 0 1-2.217 2.806l-7.787.917a2.529 2.529 0 0 1-2.808-2.215l-.578-4.903" stroke="#E6E6E6" stroke-width="2.301"/><path fill="#FCC02D" d="M289.61 340.051l-21.988 2.71-.238 17.85 26.812-3.307zm-21.363-44.138l-.074 5.577 10.832-1.337-1.434-5.39zm-.267 20.077l-.164 12.27 18.067-2.227-3.152-11.861zm4.718-39.559l-.86-3.235-3.292.407-.045 3.346zm27.804 104.596l-33.446 4.124-.538 40.192 44.541-4.607zm-32.105-96.269l-.044 3.346 7.213-.89-.861-3.235z"/><path d="M55.368 99.193c0-15.119 12.263-27.376 27.39-27.376 15.124 0 27.387 12.257 27.387 27.376 0 15.12-12.263 27.377-27.388 27.377-15.126 0-27.389-12.257-27.389-27.377m90.593 6.317c0-11.63 9.431-21.058 21.068-21.058 11.635 0 21.067 9.429 21.067 21.059s-9.432 21.06-21.067 21.06c-11.637 0-21.068-9.43-21.068-21.06" fill="#3A99D8"/><path d="M89.077 87.612c0-21.516 17.45-38.958 38.976-38.958s38.976 17.442 38.976 38.958c0 21.515-17.45 38.958-38.976 38.958s-38.976-17.443-38.976-38.958" fill="#3A99D8"/><path fill="#3A99D8" d="M82.757 126.57h84.271V97.089H82.757z"/><path fill="#FCC02D" d="M188.096 258.088L55.022 497.778H34.03zm131.402-25.207l151.31 137.974 7.964-2.655z"/><path d="M102.637 192.255c-1.215-10.305 6.16-19.643 16.471-20.857 10.31-1.213 19.653 6.156 20.867 16.462 1.215 10.307-6.159 19.646-16.47 20.86-10.311 1.212-19.654-6.16-20.868-16.465z" stroke-width="1.76"/><path d="M96.048 193.031c-1.644-13.943 8.334-26.579 22.283-28.22 13.95-1.64 26.591 8.33 28.234 22.275 1.642 13.943-8.335 26.576-22.285 28.22-13.95 1.641-26.59-8.33-28.232-22.275z" stroke-width="1.76"/><path d="M89.458 193.807c-2.07-17.58 10.51-33.511 28.097-35.582 17.589-2.07 33.527 10.504 35.599 28.084 2.071 17.581-10.509 33.512-28.098 35.583-17.588 2.069-33.527-10.504-35.598-28.085z" stroke-width="1.76"/><path d="M82.32 194.647c-2.536-21.52 12.864-41.023 34.395-43.557 21.531-2.534 41.042 12.858 43.578 34.38 2.534 21.52-12.865 41.021-34.396 43.556-21.531 2.535-41.04-12.857-43.577-34.379z" stroke-width="1.76"/></g></svg>