<svg version="1" xmlns="http://www.w3.org/2000/svg" width="933.333" height="933.333" viewBox="0 0 700 700"><path d="M520.7 121.6c-.1.1-3.3.5-7.1.8-13.3 1.2-27.4 7.4-37.7 16.5-12.5 11.1-20.7 26.6-22.5 42.3l-.7 5.8-11.1.1c-19.5.1-27.4 1.5-38.4 6.6-7.8 3.7-17.8 13.9-21.9 22.4-6.4 13.4-7.6 22.2-7.7 56.5l-.1 22-6.1-4.1c-10.7-7.4-23.2-11.2-38.4-11.8-30-1.2-52.2 8.9-66.4 30.2-8.4 12.6-11.5 24-11.4 42.6 0 18.6 4.5 32.6 14.7 45.2 9.7 12 21.8 19.6 37.6 23.5 7.9 2 8.5 2.3 8.6 4.7.1 1.4.1 15.4.1 31.1.1 23.4-.2 29.7-1.6 34.9-3.5 13.7-12 21.6-26.2 24.6-5.6 1.1-23.5 2-31.5 1.6-1.4-.1-1.6-1.7-1.7-11.6 0-18-4.1-31.3-13.6-44.3-9.8-13.3-27-23.6-43.2-26-9.2-1.3-30.5-.7-37.4 1.1-25.7 6.7-44.2 26-50.3 52.6-1.7 7.3-1.6 29.7.2 36.1 6 21.3 17.8 36.4 35.6 45.4 10.7 5.4 17.1 6.7 33.5 7.1 17.8.4 25-.9 37.9-7.2 7.6-3.6 10.9-6 17.1-12.2 4.2-4.2 8.9-10 10.5-12.9l2.8-5.2 18.6-.1c21.5-.1 24.6-.3 32.1-2.5 19.1-5.4 31.4-18.3 36.9-38.4 2.7-10 2.9-13.6 3-47.7l.1-29.2 4.8-.7c2.6-.4 7.9-1.8 11.7-3.2 21.4-7.6 36.3-23.4 43.1-45.7 1.7-5.5 1.8-11 1.9-69.5 0-59.6.2-63.8 1.9-69 3.8-11 9.5-16.9 20.7-21.2 4.3-1.6 8.5-2.1 19.9-2.5l14.5-.5 1.9 6.3c3.3 11.1 10.8 23.7 18 30.3 14.1 12.7 28.2 18.3 47.7 19 24.7.8 40.5-4.2 55.3-17.6 15.9-14.4 22.9-32.4 22.2-57.3-.6-17.5-4-28.3-13.2-41.1-11.2-15.8-32.1-26.8-51.9-27.4-3.3 0-7.5-.2-9.3-.4-1.8-.1-3.4-.1-3.5 0zm22.8 23.2c8.7 2.5 14.8 6.2 20.8 12.4 10.1 10.6 13.2 19.3 13.1 36.8-.1 17.3-3.9 27.6-14 37.3-9.3 9.1-19 12.4-36.5 12.5-14 .1-19-.7-26.9-4.5-11.2-5.4-19.1-14.3-23.4-26.4-2.6-7.4-3.4-23.8-1.6-32.9 3.3-16.8 16.9-30.9 34-35.3 7.4-1.9 28-1.9 34.5.1zM339.7 301.1c16.2 3.1 30.2 16.7 34.7 33.9 2 7.8 1.5 26.8-.9 34-4.7 14.2-14.7 24.3-29.1 29.5-6.8 2.4-29.7 3-37.4.9-17.2-4.6-29.1-16.5-33.3-33.4-1.8-7.1-1.9-23.9-.1-31 4.4-17.1 19-31.2 35.4-33.9 6.9-1.2 24.4-1.1 30.7 0zM196.8 457.6c7.9 2.2 12 4.5 18 9.9 7.1 6.4 13.6 17.9 14.8 26.3.5 4.1.5 21.3-.1 24.7-1.7 9.1-6.5 18.2-13.3 24.9-5.6 5.6-16.6 11.2-24.2 12.4-5.8.9-23.4.8-28.3-.2-16.7-3.1-29.9-15.2-35.3-32.3-1.4-4.4-1.8-8.7-1.8-17.8.1-12.6 1.1-17 5.9-26.5 5.5-10.9 20.3-21.1 32.6-22.6 3-.3 5.5-.7 5.6-.8 1-.9 21.8.7 26.1 2z"/></svg>