<svg width="500" height="500" xmlns="http://www.w3.org/2000/svg" xmlns:xlink="http://www.w3.org/1999/xlink"><defs><path d="M.951.269v81.414h163.368c1.757-6.568 7.734-11.413 14.856-11.413h43.778c7.123 0 13.099 4.845 14.856 11.413h5.623c12.74 0 23.068-9.367 23.068-20.734 0-15.498-61.631-60.68-111.089-60.68H.951z" id="a"/><path d="M.951.269v81.414h163.368c1.757-6.568 7.734-11.413 14.856-11.413h43.778c7.123 0 13.099 4.845 14.856 11.413h5.623c12.74 0 23.068-9.367 23.068-20.734 0-15.498-61.631-60.68-111.089-60.68" id="c"/><path d="M.951.269v81.414h163.368c1.757-6.568 7.734-11.413 14.856-11.413h43.778c7.123 0 13.099 4.845 14.856 11.413h5.623c12.74 0 23.068-9.367 23.068-20.734 0-15.498-61.631-60.68-111.089-60.68" id="e"/><path d="M.951.269v81.414h163.368c1.757-6.568 7.734-11.413 14.856-11.413h43.778c7.123 0 13.099 4.845 14.856 11.413h5.623c12.74 0 23.068-9.367 23.068-20.734 0-15.498-61.631-60.68-111.089-60.68" id="g"/><path d="M.951.269v81.414h163.368c1.757-6.568 7.734-11.413 14.856-11.413h43.778c7.123 0 13.099 4.845 14.856 11.413h5.623c12.74 0 23.068-9.367 23.068-20.734 0-15.498-61.631-60.68-111.089-60.68" id="i"/><path id="k" d="M.161.55h160.823v1H.161z"/><path id="m" d="M.161.14h144.504v22.825H.161z"/></defs><g fill="none" fill-rule="evenodd"><path d="M161.784 175.234c0-35.977 29.165-65.142 65.142-65.142 35.976 0 65.14 29.165 65.14 65.142s-29.164 65.142-65.14 65.142c-35.977 0-65.142-29.165-65.142-65.142" fill="#199D86"/><path d="M361.999 294.493h42.609" fill="#063985"/><path d="M361.999 294.493h42.609" stroke="#E6E6E6" stroke-width="1.522"/><path d="M350.585 291.45c0-6.304 5.11-11.414 11.414-11.414 6.303 0 11.413 5.11 11.413 11.413 0 6.304-5.11 11.414-11.413 11.414-6.304 0-11.414-5.11-11.414-11.414" fill="#063985"/><path d="M350.585 291.45c0-6.304 5.11-11.414 11.414-11.414 6.303 0 11.413 5.11 11.413 11.413 0 6.304-5.11 11.414-11.413 11.414-6.304 0-11.414-5.11-11.414-11.414z" stroke="#E6E6E6" stroke-width="1.522"/><path d="M255.77 259.526h-18.26a3.635 3.635 0 0 1-3.635-3.635v-10.147a3.636 3.636 0 0 1 3.636-3.635h18.258a3.635 3.635 0 0 1 3.635 3.635v10.147a3.634 3.634 0 0 1-3.635 3.635" fill="#3A99D8"/><path d="M376.455 289.928h12.936" fill="#063985"/><path d="M376.455 289.928h12.936" stroke="#E6E6E6" stroke-width="1.522"/><path d="M393.195 291.45c0-6.304 5.11-11.414 11.413-11.414 6.304 0 11.413 5.11 11.413 11.413 0 6.304-5.109 11.414-11.413 11.414s-11.413-5.11-11.413-11.414" fill="#063985"/><path d="M393.195 291.45c0-6.304 5.11-11.414 11.413-11.414 6.304 0 11.413 5.11 11.413 11.413 0 6.304-5.109 11.414-11.413 11.414s-11.413-5.11-11.413-11.414z" stroke="#E6E6E6" stroke-width="1.522"/><path d="M338.411 216.122h-154.46v81.414H347.32c1.757-6.568 7.734-11.413 14.857-11.413h43.777c7.123 0 13.1 4.845 14.856 11.413h5.623c12.74 0 23.07-9.367 23.07-20.733 0-15.499-61.633-60.681-111.09-60.681" fill="#063985"/><g transform="translate(183 215.853)"><mask id="b" fill="#fff"><use xlink:href="#a"/></mask><path d="M293.892 48.965h-55.544c-19.33 0-35.002-10.22-35.002-22.826h90.546v22.826z" fill="#3A99D8" mask="url(#b)"/></g><g transform="translate(183 215.853)"><mask id="d" fill="#fff"><use xlink:href="#c"/></mask><path d="M20.22 48.965h157.996a6.87 6.87 0 0 0 6.87-6.869v-9.088a6.87 6.87 0 0 0-6.87-6.869H20.22a6.869 6.869 0 0 0-6.87 6.87v9.087a6.869 6.869 0 0 0 6.87 6.87" fill="#3A99D8" mask="url(#d)"/></g><g transform="translate(183 215.853)"><mask id="f" fill="#fff"><use xlink:href="#e"/></mask><path d="M303.023 22.334h-9.946a6.793 6.793 0 0 0-6.793 6.793v1.631a6.793 6.793 0 0 0 6.793 6.794h9.946a7.608 7.608 0 0 0 7.608-7.61 7.608 7.608 0 0 0-7.608-7.608" fill="#3A99D8" mask="url(#f)"/></g><g transform="translate(183 215.853)"><mask id="h" fill="#fff"><use xlink:href="#g"/></mask><path d="M298.834 9.803H-12.37" stroke="#E6E6E6" stroke-width="1.835" mask="url(#h)"/></g><g transform="translate(183 215.853)"><mask id="j" fill="#fff"><use xlink:href="#i"/></mask><path d="M306.066 64.183H-5.136" stroke="#E6E6E6" stroke-width="1.835" mask="url(#j)"/></g><path d="M338.411 216.122h-154.46v81.414H347.32c1.757-6.568 7.734-11.413 14.857-11.413h43.777c7.123 0 13.1 4.845 14.856 11.413h5.623c12.74 0 23.07-9.367 23.07-20.733 0-15.499-61.633-60.681-111.09-60.681z" stroke="#E6E6E6" stroke-width="1.835" stroke-linecap="round" stroke-linejoin="round"/><path d="M110.915 294.493h42.609" fill="#063985"/><path d="M110.915 294.493h42.609" stroke="#E6E6E6" stroke-width="1.522"/><path d="M99.5 291.45c0-6.304 5.11-11.414 11.415-11.414 6.303 0 11.413 5.11 11.413 11.413 0 6.304-5.11 11.414-11.413 11.414-6.304 0-11.414-5.11-11.414-11.414" fill="#063985"/><path d="M99.5 291.45c0-6.304 5.11-11.414 11.415-11.414 6.303 0 11.413 5.11 11.413 11.413 0 6.304-5.11 11.414-11.413 11.414-6.304 0-11.414-5.11-11.414-11.414z" stroke="#E6E6E6" stroke-width="1.522"/><path d="M125.371 289.928h12.936" fill="#063985"/><path d="M125.371 289.928h12.936" stroke="#E6E6E6" stroke-width="1.522"/><path d="M142.111 291.45c0-6.304 5.11-11.414 11.413-11.414 6.304 0 11.413 5.11 11.413 11.413 0 6.304-5.109 11.414-11.413 11.414s-11.413-5.11-11.413-11.414" fill="#063985"/><path d="M142.111 291.45c0-6.304 5.11-11.414 11.413-11.414 6.304 0 11.413 5.11 11.413 11.413 0 6.304-5.109 11.414-11.413 11.414s-11.413-5.11-11.413-11.414z" stroke="#E6E6E6" stroke-width="1.522"/><path d="M-46.468 297.469H94.805l7.663-8.145a10.237 10.237 0 0 1 7.455-3.221h42.928c2.611 0 5.122.997 7.022 2.787l9.1 8.579h14.978V215.84H-46.468v81.628z" fill="#063985"/><path d="M14 297.469h80.805l7.663-8.145a10.237 10.237 0 0 1 7.455-3.221h42.928c2.611 0 5.122.997 7.022 2.787l9.1 8.579h14.978V215.84H27.67" stroke="#E6E6E6" stroke-linecap="round" stroke-linejoin="round" stroke-width="1.835"/><g transform="translate(24 278.853)"><mask id="l" fill="#fff"><use xlink:href="#k"/></mask><path d="M160.984 1.05h-237.65" stroke="#E6E6E6" stroke-width="1.835" mask="url(#l)"/></g><path d="M184.984 225.656H37" stroke="#E6E6E6" stroke-linecap="round" stroke-linejoin="round" stroke-width="1.835"/><g transform="translate(24 241.853)"><mask id="n" fill="#fff"><use xlink:href="#m"/></mask><path d="M-80.13 22.965h217.926a6.869 6.869 0 0 0 6.87-6.869V7.008a6.869 6.869 0 0 0-6.87-6.869H-80.13A6.869 6.869 0 0 0-87 7.01v9.087a6.869 6.869 0 0 0 6.87 6.87" fill="#3A99D8" mask="url(#n)"/></g><path d="M12 309.868h465.398" stroke="#199D86" stroke-linecap="round" stroke-linejoin="round" stroke-width="10.333"/><path fill="#063985" d="M134.355 269.57h7.232v-32.031h-7.232zm-37.973 0h7.232v-32.031h-7.232zm-37.972 0h7.232v-32.031H58.41zm240.579 0h7.232v-32.031h-7.232zm38.92 0h7.232v-32.031h-7.232zm-77.84 0h7.232v-32.031h-7.232zm-38.92 0h7.233v-32.031h-7.233zm-208.712 0h7.232v-32.031h-7.232z"/><path d="M226.926 205.512s3.283-1.095 14.479-9.214c14.97-10.86 14.313-26.982 14.313-26.982V138.22l-28.792-10.694-28.793 10.694v31.096s-.658 16.123 14.314 26.982c11.195 8.119 14.479 9.214 14.479 9.214" fill="#FFF"/><path stroke="#199D86" stroke-width="4.814" stroke-linecap="round" stroke-linejoin="round" d="M208.632 166.037l18.294 14.441 21.18-30.809"/></g></svg>