<svg width="500" height="500" xmlns="http://www.w3.org/2000/svg" xmlns:xlink="http://www.w3.org/1999/xlink"><defs><path id="a" d="M.608.945h64.664V72.38H.608z"/></defs><g fill="none" fill-rule="evenodd"><path fill="#063985" d="M12.437 269.57h7.232v-32.031h-7.232z"/><path d="M49.65 195.68l87.212 195.955 313.313-135.662" stroke="#E6E6E6" stroke-width="1.017" stroke-dasharray="4.07,6.105"/><path d="M119.468 400.584c-5.032-9.502-1.408-21.285 8.095-26.315 9.502-5.033 21.283-1.409 26.315 8.093 5.031 9.503 1.407 21.285-8.095 26.316-9.502 5.031-21.283 1.407-26.315-8.094" fill="#063985"/><path d="M119.468 400.584c-5.032-9.502-1.408-21.285 8.095-26.315 9.502-5.033 21.283-1.409 26.315 8.093 5.031 9.503 1.407 21.285-8.095 26.316-9.502 5.031-21.283 1.407-26.315-8.094z" stroke="#617A8E" stroke-width="2.346"/><path d="M130.037 394.987a7.508 7.508 0 0 1 3.122-10.15 7.509 7.509 0 0 1 10.15 3.122 7.509 7.509 0 1 1-13.272 7.028" fill="#617A8E"/><path d="M32.453 204.561c-5.031-9.502-1.407-21.284 8.096-26.315 9.502-5.031 21.283-1.407 26.315 8.094 5.031 9.502 1.407 21.284-8.096 26.317-9.501 5.03-21.282 1.406-26.315-8.096" fill="#063985"/><path d="M32.453 204.561c-5.031-9.502-1.407-21.284 8.096-26.315 9.502-5.031 21.283-1.407 26.315 8.094 5.031 9.502 1.407 21.284-8.096 26.317-9.501 5.03-21.282 1.406-26.315-8.096z" stroke="#617A8E" stroke-width="2.346"/><path d="M42.827 199.431a7.51 7.51 0 1 1 13.273-7.028 7.51 7.51 0 0 1-13.273 7.028" fill="#617A8E"/><path d="M432.78 264.922c-5.03-9.501-1.407-21.285 8.096-26.315 9.502-5.032 21.283-1.408 26.315 8.094 5.032 9.502 1.408 21.284-8.095 26.316-9.502 5.031-21.283 1.407-26.315-8.095" fill="#063985"/><path d="M432.78 264.922c-5.03-9.501-1.407-21.285 8.096-26.315 9.502-5.032 21.283-1.408 26.315 8.094 5.032 9.502 1.408 21.284-8.095 26.316-9.502 5.031-21.283 1.407-26.315-8.095z" stroke="#617A8E" stroke-width="2.346"/><path d="M443.35 259.325a7.508 7.508 0 0 1 3.122-10.15 7.509 7.509 0 0 1 10.15 3.123 7.509 7.509 0 1 1-13.272 7.027" fill="#617A8E"/><g transform="translate(353.003 74.131)"><mask id="b" fill="#fff"><use xlink:href="#a"/></mask><path d="M39.608 50.095l13.013 21.883 3.347-6.294-6.896-29.964 12.266-18.137s7.089-15.02 2.236-16.468c-4.852-1.446-13.257 6.8-13.257 6.8l-14.535 23.74-16.139 6.044-4.746 4.801 13.44.92-12.01 18.194-11.941 3.774-3.778 4.613 15.907 2.38s5.585-.116 8.749-4.332c3.163-4.215 14.344-17.954 14.344-17.954" fill="#FCC02D" mask="url(#b)"/></g><path d="M367.012 155.38S282.3 283.447 143.77 289.427" stroke="#FCC02D" stroke-width="1.16"/><path d="M82.677 337.111h346.04a5.14 5.14 0 0 0 0-10.281H82.676a5.14 5.14 0 0 0 0 10.281" fill="#199D86"/><path stroke="#E6E6E6" stroke-width="2.857" d="M275.506 207.67v-79.24h-39.62v81.27"/><path d="M233.826 134.526h43.231a3.443 3.443 0 0 0 3.444-3.442V126.4h-50.116v4.684c0 1.9 1.54 3.442 3.44 3.442" fill="#E6E6E6"/><path d="M288.085 398.314h7.18a4.198 4.198 0 0 0 4.198-4.198v-9.889a4.199 4.199 0 0 0-4.198-4.199h-7.18a4.198 4.198 0 0 0-4.198 4.2v9.888a4.198 4.198 0 0 0 4.198 4.198m-72.804 0h7.18a4.198 4.198 0 0 0 4.198-4.198v-9.889a4.199 4.199 0 0 0-4.198-4.199h-7.18a4.198 4.198 0 0 0-4.198 4.2v9.888a4.198 4.198 0 0 0 4.198 4.198" fill="#FFF"/><path d="M213.252 190.06h84.889c13.213 0 23.924 10.712 23.924 23.926v148.55c0 13.214-10.711 23.926-23.924 23.926h-84.889c-13.214 0-23.926-10.712-23.926-23.926v-148.55c0-13.214 10.712-23.925 23.926-23.925" fill="#063985"/><path d="M213.252 190.06h84.889c13.213 0 23.924 10.712 23.924 23.926v148.55c0 13.214-10.711 23.926-23.924 23.926h-84.889c-13.214 0-23.926-10.712-23.926-23.926v-148.55c0-13.214 10.712-23.925 23.926-23.925z" stroke="#FFF" stroke-width="2.32"/><path d="M299.567 364.811c1.122 0 2.032-.91 2.032-2.031V214.463a2.032 2.032 0 0 0-4.065 0V362.78c0 1.122.911 2.031 2.033 2.031m-28.597 0c1.122 0 2.033-.91 2.033-2.031V214.463a2.033 2.033 0 0 0-4.065 0V362.78c0 1.122.91 2.031 2.032 2.031m-28.596 0c1.122 0 2.032-.91 2.032-2.031V214.463a2.032 2.032 0 0 0-4.064 0V362.78c0 1.122.91 2.031 2.032 2.031m-28.597 0c1.123 0 2.033-.91 2.033-2.031V214.463a2.032 2.032 0 0 0-4.065 0V362.78c0 1.122.91 2.031 2.032 2.031" fill="#3A99D8"/><path fill="#E6E6E6" d="M273.096 257.708l-25.528 7.555-23.925-80.838 25.528-7.556z"/><path fill="#617A8E" d="M248.515 258.042l.56 1.89 19.855-5.875-.56-1.892zm-.855-2.89l.104.348 19.854-5.876-.104-.348zm-1.44-4.866l.547 1.847 19.854-5.877-.546-1.846zm-.863-2.916l.124.42 19.856-5.877-.125-.419zm-.367-1.24l.124.419 19.856-5.877-.125-.419zm-.367-1.242l.124.42 19.855-5.877-.125-.418zm-1.621-5.477l.775 2.616 19.854-5.875-.774-2.616zm-2.392-8.079l.56 1.89 19.855-5.875-.56-1.892z"/><path fill="#FCC02D" d="M228.663 190.962l6.631 22.406 19.855-5.876-6.631-22.407z"/></g></svg>