<svg width="14" height="17" viewBox="0 0 14 17" fill="none" xmlns="http://www.w3.org/2000/svg">
<path d="M9.27357 10.0463C9.17211 10.0131 8.53081 9.72407 8.93154 8.50593H8.9258C9.97037 7.43008 10.7686 5.69891 10.7686 3.99453C10.7686 1.37384 9.02598 0 7.00064 0C4.97402 0 3.24093 1.3732 3.24093 3.99453C3.24093 5.70592 4.03473 7.44412 5.08569 8.51741C5.49535 9.59198 4.76281 9.99079 4.60966 10.0469C2.48861 10.8139 0 12.212 0 13.5923V14.1098C0 15.9902 3.64613 16.4178 7.02042 16.4178C10.3998 16.4178 14 15.9902 14 14.1098V13.5923C14 12.1706 11.4993 10.7833 9.27357 10.0463Z" fill="#3398DB"/>
</svg>
